<svg width="33" height="21" viewBox="0 0 33 21" fill="none" xmlns="http://www.w3.org/2000/svg">
<g id="Group 197">
<path id="Rectangle 128" d="M0 1.90385C0 0.852383 0.852381 0 1.90385 0H3.80769V19.6731C3.80769 20.0236 3.52357 20.3077 3.17308 20.3077H0.634615C0.284127 20.3077 0 20.0236 0 19.6731V1.90385Z" fill="#BEFF54"/>
<path id="Rectangle 133" d="M29.1923 18.4038C29.1923 17.3524 30.0447 16.5 31.0962 16.5H32.7462C32.8863 16.5 33 16.6137 33 16.7538V20.0538C33 20.194 32.8863 20.3077 32.7462 20.3077H29.4462C29.306 20.3077 29.1923 20.194 29.1923 20.0538V18.4038Z" fill="#BEFF54"/>
<path id="Rectangle 129" d="M3.80769 0H5.9347C6.89486 0 7.70476 0.714964 7.82385 1.6677L10.1538 20.3077H6.90638C6.58633 20.3077 6.31636 20.0694 6.27667 19.7518L3.80769 0Z" fill="#BEFF54"/>
<path id="Rectangle 131" d="M16.5 0H19.7475C20.0675 0 20.3375 0.238321 20.3772 0.555901L22.8462 20.3077H19.5987C19.2786 20.3077 19.0087 20.0694 18.969 19.7518L16.5 0Z" fill="#BEFF54"/>
<path id="Rectangle 130" d="M16.5 0H13.2525C12.9325 0 12.6625 0.238321 12.6228 0.555901L10.1538 20.3077H13.4013C13.7214 20.3077 13.9913 20.0694 14.031 19.7518L16.5 0Z" fill="#BEFF54"/>
<path id="Rectangle 132" d="M29.1031 0.71333C29.1505 0.334558 28.8551 0 28.4734 0H27.0653C26.1051 0 25.2952 0.714964 25.1762 1.6677L22.8462 20.3077H26.0936C26.4137 20.3077 26.6836 20.0694 26.7233 19.7518L29.1031 0.71333Z" fill="#BEFF54"/>
</g>
</svg>
